<svg width="403" height="108" viewBox="0 0 403 108" fill="none" xmlns="http://www.w3.org/2000/svg">
<rect width="403" height="108" rx="5" fill="#273143"/>
<line y1="51.666" x2="29" y2="51.666" stroke="#0D1527"/>
<rect x="29.5" y="45.666" width="12" height="12" rx="6" fill="#505764" stroke="#0D1527"/>
<line x1="42" y1="51.666" x2="71" y2="51.666" stroke="#0D1527"/>
<rect x="71.5" y="45.666" width="12" height="12" rx="6" fill="#505764" stroke="#0D1527"/>
<line x1="84" y1="51.666" x2="251.5" y2="51.666" stroke="#0D1527"/>
<rect x="251.5" y="45.666" width="12" height="12" rx="6" fill="#505764" stroke="#0D1527"/>
<line x1="264" y1="51.666" x2="293" y2="51.666" stroke="#0D1527"/>
<rect x="293.5" y="45.666" width="12" height="12" rx="6" fill="#505764" stroke="#0D1527"/>
<line x1="306" y1="51.666" x2="335" y2="51.666" stroke="#0D1527"/>
<rect x="335.5" y="45.666" width="12" height="12" rx="6" fill="#505764" stroke="#0D1527"/>
<line x1="348" y1="51.666" x2="377" y2="51.666" stroke="#0D1527"/>
<rect x="377.5" y="45.666" width="12" height="12" rx="6" fill="#505764" stroke="#0D1527"/>
<line x1="178" y1="33.666" x2="209" y2="33.666" stroke="#0D1527" stroke-width="2"/>
<rect x="208.5" y="27.666" width="12" height="12" rx="6" fill="#F02D5E" stroke="#0D1527"/>
<line x1="221" y1="33.666" x2="251" y2="33.666" stroke="#0D1527"/>
<rect x="251.5" y="27.666" width="12" height="12" rx="6" fill="#505764" stroke="#0D1527"/>
<line x1="264" y1="33.666" x2="294" y2="33.666" stroke="#0D1527"/>
<rect x="293.5" y="27.666" width="12" height="12" rx="6" fill="#505764" stroke="#0D1527"/>
<line x1="306" y1="33.666" x2="335" y2="33.666" stroke="#0D1527"/>
<rect x="335.5" y="27.666" width="12" height="12" rx="6" fill="#505764" stroke="#0D1527"/>
<line x1="348" y1="33.666" x2="377" y2="33.666" stroke="#0D1527"/>
<rect x="377.5" y="27.666" width="12" height="12" rx="6" fill="#505764" stroke="#0D1527"/>
<rect x="166.5" y="27.666" width="12" height="12" rx="6" fill="#F02D5E" stroke="#0D1527"/>
<path d="M129.188 51.7454L129.229 43.9477C129.257 38.4453 133.726 34 139.228 34L166.5 34" stroke="#0D1527" stroke-width="2"/>
<rect x="123.5" y="45.666" width="12" height="12" rx="6" fill="#505764" stroke="#0D1527"/>
<rect width="403" height="30" transform="translate(0 78)" fill="#0D1527"/>
<path d="M168.663 98V90.7273H169.544V97.2188H172.924V98H168.663ZM174.174 98V92.5455H175.012V98H174.174ZM174.6 91.6364C174.437 91.6364 174.296 91.5807 174.178 91.4695C174.062 91.3582 174.004 91.2244 174.004 91.0682C174.004 90.9119 174.062 90.7782 174.178 90.6669C174.296 90.5556 174.437 90.5 174.6 90.5C174.764 90.5 174.903 90.5556 175.019 90.6669C175.138 90.7782 175.197 90.9119 175.197 91.0682C175.197 91.2244 175.138 91.3582 175.019 91.4695C174.903 91.5807 174.764 91.6364 174.6 91.6364ZM176.547 98V92.5455H177.357V93.3977H177.428C177.542 93.1065 177.725 92.8804 177.978 92.7195C178.232 92.5561 178.536 92.4744 178.891 92.4744C179.251 92.4744 179.55 92.5561 179.79 92.7195C180.031 92.8804 180.219 93.1065 180.354 93.3977H180.411C180.551 93.116 180.76 92.8923 181.04 92.7266C181.319 92.5585 181.654 92.4744 182.044 92.4744C182.532 92.4744 182.931 92.6271 183.241 92.9325C183.551 93.2356 183.706 93.7079 183.706 94.3494V98H182.868V94.3494C182.868 93.947 182.758 93.6593 182.538 93.4865C182.318 93.3137 182.059 93.2273 181.76 93.2273C181.377 93.2273 181.08 93.3433 180.869 93.5753C180.658 93.8049 180.553 94.0961 180.553 94.4489V98H179.701V94.2642C179.701 93.9541 179.6 93.7043 179.399 93.5149C179.198 93.3232 178.938 93.2273 178.621 93.2273C178.403 93.2273 178.2 93.2853 178.01 93.4013C177.823 93.5173 177.672 93.6783 177.556 93.8842C177.442 94.0878 177.385 94.3234 177.385 94.5909V98H176.547ZM185.239 98V92.5455H186.077V98H185.239ZM185.665 91.6364C185.502 91.6364 185.361 91.5807 185.242 91.4695C185.126 91.3582 185.068 91.2244 185.068 91.0682C185.068 90.9119 185.126 90.7782 185.242 90.6669C185.361 90.5556 185.502 90.5 185.665 90.5C185.828 90.5 185.968 90.5556 186.084 90.6669C186.202 90.7782 186.261 90.9119 186.261 91.0682C186.261 91.2244 186.202 91.3582 186.084 91.4695C185.968 91.5807 185.828 91.6364 185.665 91.6364ZM189.984 92.5455V93.2557H187.157V92.5455H189.984ZM187.981 91.2386H188.819V96.4375C188.819 96.6742 188.853 96.8518 188.922 96.9702C188.993 97.0862 189.083 97.1643 189.192 97.2045C189.303 97.2424 189.42 97.2614 189.544 97.2614C189.636 97.2614 189.712 97.2566 189.771 97.2472C189.83 97.2353 189.877 97.2259 189.913 97.2188L190.083 97.9716C190.027 97.9929 189.947 98.0142 189.845 98.0355C189.744 98.0592 189.615 98.071 189.458 98.071C189.222 98.071 188.99 98.0201 188.762 97.9183C188.537 97.8165 188.35 97.6615 188.201 97.4531C188.054 97.2448 187.981 96.982 187.981 96.6648V91.2386ZM191.245 98V92.5455H192.083V98H191.245ZM191.671 91.6364C191.507 91.6364 191.367 91.5807 191.248 91.4695C191.132 91.3582 191.074 91.2244 191.074 91.0682C191.074 90.9119 191.132 90.7782 191.248 90.6669C191.367 90.5556 191.507 90.5 191.671 90.5C191.834 90.5 191.974 90.5556 192.09 90.6669C192.208 90.7782 192.267 90.9119 192.267 91.0682C192.267 91.2244 192.208 91.3582 192.09 91.4695C191.974 91.5807 191.834 91.6364 191.671 91.6364ZM194.456 94.7188V98H193.618V92.5455H194.427V93.3977H194.498C194.626 93.1207 194.82 92.8982 195.081 92.7301C195.341 92.5597 195.677 92.4744 196.089 92.4744C196.459 92.4744 196.782 92.5502 197.059 92.7017C197.336 92.8509 197.551 93.0781 197.705 93.3835C197.859 93.6866 197.936 94.0701 197.936 94.5341V98H197.098V94.5909C197.098 94.1624 196.986 93.8286 196.764 93.5895C196.541 93.348 196.236 93.2273 195.848 93.2273C195.58 93.2273 195.341 93.2853 195.13 93.4013C194.922 93.5173 194.758 93.6866 194.637 93.9091C194.516 94.1316 194.456 94.4015 194.456 94.7188ZM201.669 100.159C201.264 100.159 200.916 100.107 200.625 100.003C200.334 99.901 200.091 99.7661 199.897 99.598C199.705 99.4323 199.552 99.2547 199.439 99.0653L200.106 98.5966C200.182 98.696 200.278 98.8097 200.394 98.9375C200.51 99.0677 200.669 99.1802 200.87 99.2749C201.074 99.3719 201.34 99.4205 201.669 99.4205C202.109 99.4205 202.473 99.3139 202.759 99.1009C203.046 98.8878 203.189 98.554 203.189 98.0994V96.9915H203.118C203.056 97.0909 202.969 97.214 202.855 97.3608C202.744 97.5052 202.583 97.6342 202.372 97.7479C202.164 97.8591 201.882 97.9148 201.527 97.9148C201.087 97.9148 200.691 97.8106 200.341 97.6023C199.993 97.3939 199.717 97.0909 199.513 96.6932C199.312 96.2955 199.212 95.8125 199.212 95.2443C199.212 94.6856 199.31 94.1991 199.506 93.7848C199.703 93.3681 199.976 93.0462 200.327 92.8189C200.677 92.5893 201.082 92.4744 201.541 92.4744C201.896 92.4744 202.178 92.5336 202.386 92.652C202.597 92.768 202.758 92.9006 202.869 93.0497C202.983 93.1965 203.07 93.3172 203.132 93.4119H203.217V92.5455H204.027V98.1562C204.027 98.625 203.92 99.0062 203.707 99.2997C203.497 99.5956 203.213 99.8123 202.855 99.9496C202.5 100.089 202.105 100.159 201.669 100.159ZM201.641 97.1619C201.977 97.1619 202.261 97.085 202.493 96.9311C202.725 96.7772 202.901 96.5559 203.022 96.267C203.143 95.9782 203.203 95.6326 203.203 95.2301C203.203 94.8371 203.144 94.4903 203.025 94.1896C202.907 93.889 202.732 93.6534 202.5 93.483C202.268 93.3125 201.981 93.2273 201.641 93.2273C201.285 93.2273 200.989 93.3172 200.753 93.4972C200.518 93.6771 200.342 93.9186 200.224 94.2216C200.108 94.5246 200.05 94.8608 200.05 95.2301C200.05 95.6089 200.109 95.9439 200.227 96.2351C200.348 96.5239 200.525 96.7512 200.76 96.9169C200.997 97.0803 201.29 97.1619 201.641 97.1619ZM208.373 100.045V92.5455H209.183V93.4119H209.283C209.344 93.3172 209.429 93.1965 209.538 93.0497C209.65 92.9006 209.808 92.768 210.014 92.652C210.222 92.5336 210.504 92.4744 210.859 92.4744C211.319 92.4744 211.723 92.5893 212.074 92.8189C212.424 93.0485 212.698 93.3741 212.894 93.7955C213.091 94.2169 213.189 94.714 213.189 95.2869C213.189 95.8646 213.091 96.3653 212.894 96.7891C212.698 97.2105 212.425 97.5372 212.077 97.7692C211.729 97.9988 211.328 98.1136 210.873 98.1136C210.523 98.1136 210.243 98.0556 210.032 97.9396C209.821 97.8213 209.659 97.6875 209.545 97.5384C209.432 97.3868 209.344 97.2614 209.283 97.1619H209.212V100.045H208.373ZM209.197 95.2727C209.197 95.6847 209.258 96.0481 209.378 96.3629C209.499 96.6754 209.676 96.9205 209.908 97.098C210.14 97.2732 210.424 97.3608 210.76 97.3608C211.11 97.3608 211.403 97.2685 211.637 97.0838C211.874 96.8968 212.051 96.6458 212.17 96.331C212.29 96.0137 212.351 95.661 212.351 95.2727C212.351 94.8892 212.292 94.5436 212.173 94.2358C212.057 93.9257 211.881 93.6806 211.644 93.5007C211.41 93.3184 211.115 93.2273 210.76 93.2273C210.419 93.2273 210.132 93.3137 209.9 93.4865C209.668 93.657 209.493 93.8961 209.375 94.2038C209.257 94.5092 209.197 94.8655 209.197 95.2727ZM216.072 98.1278C215.727 98.1278 215.413 98.0627 215.131 97.9325C214.85 97.8 214.626 97.6094 214.46 97.3608C214.294 97.1098 214.212 96.8068 214.212 96.4517C214.212 96.1392 214.273 95.8859 214.396 95.6918C214.519 95.4953 214.684 95.3414 214.89 95.2301C215.096 95.1188 215.323 95.036 215.572 94.9815C215.823 94.9247 216.075 94.8797 216.328 94.8466C216.659 94.804 216.928 94.772 217.134 94.7507C217.342 94.727 217.494 94.688 217.589 94.6335C217.686 94.5791 217.734 94.4844 217.734 94.3494V94.321C217.734 93.9706 217.638 93.6984 217.447 93.5043C217.257 93.3101 216.97 93.2131 216.584 93.2131C216.184 93.2131 215.87 93.3007 215.643 93.4759C215.415 93.651 215.256 93.8381 215.163 94.0369L214.368 93.7528C214.51 93.4214 214.699 93.1634 214.936 92.9787C215.175 92.7917 215.436 92.6615 215.717 92.5881C216.001 92.5123 216.281 92.4744 216.555 92.4744C216.73 92.4744 216.932 92.4957 217.159 92.5384C217.389 92.5786 217.61 92.6626 217.823 92.7905C218.039 92.9183 218.217 93.1113 218.359 93.3693C218.501 93.6274 218.572 93.973 218.572 94.4062V98H217.734V97.2614H217.692C217.635 97.3797 217.54 97.5064 217.408 97.6413C217.275 97.7763 217.099 97.8911 216.878 97.9858C216.658 98.0805 216.39 98.1278 216.072 98.1278ZM216.2 97.375C216.532 97.375 216.811 97.3099 217.038 97.1797C217.268 97.0495 217.441 96.8814 217.557 96.6754C217.675 96.4695 217.734 96.2528 217.734 96.0256V95.2585C217.699 95.3011 217.621 95.3402 217.5 95.3757C217.382 95.4089 217.244 95.4384 217.088 95.4645C216.934 95.4882 216.784 95.5095 216.637 95.5284C216.493 95.545 216.375 95.5592 216.285 95.571C216.068 95.5994 215.864 95.6456 215.675 95.7095C215.488 95.7711 215.336 95.8646 215.22 95.9901C215.106 96.1132 215.05 96.2812 215.05 96.4943C215.05 96.7855 215.157 97.0057 215.373 97.1548C215.591 97.3016 215.866 97.375 216.2 97.375ZM222.474 92.5455V93.2557H219.647V92.5455H222.474ZM220.471 91.2386H221.309V96.4375C221.309 96.6742 221.344 96.8518 221.412 96.9702C221.483 97.0862 221.573 97.1643 221.682 97.2045C221.794 97.2424 221.911 97.2614 222.034 97.2614C222.126 97.2614 222.202 97.2566 222.261 97.2472C222.32 97.2353 222.368 97.2259 222.403 97.2188L222.574 97.9716C222.517 97.9929 222.437 98.0142 222.336 98.0355C222.234 98.0592 222.105 98.071 221.949 98.071C221.712 98.071 221.48 98.0201 221.253 97.9183C221.028 97.8165 220.841 97.6615 220.691 97.4531C220.545 97.2448 220.471 96.982 220.471 96.6648V91.2386ZM224.69 94.7188V98H223.852V90.7273H224.69V93.3977H224.761C224.889 93.116 225.081 92.8923 225.336 92.7266C225.594 92.5585 225.938 92.4744 226.366 92.4744C226.738 92.4744 227.063 92.549 227.343 92.6982C227.622 92.8449 227.839 93.071 227.993 93.3764C228.149 93.6795 228.227 94.0653 228.227 94.5341V98H227.389V94.5909C227.389 94.1577 227.276 93.8227 227.052 93.5859C226.829 93.3468 226.52 93.2273 226.125 93.2273C225.85 93.2273 225.604 93.2853 225.386 93.4013C225.171 93.5173 225 93.6866 224.875 93.9091C224.752 94.1316 224.69 94.4015 224.69 94.7188ZM233.624 93.767L232.871 93.9801C232.824 93.8546 232.754 93.7327 232.661 93.6143C232.572 93.4936 232.448 93.3942 232.292 93.3161C232.136 93.2379 231.936 93.1989 231.692 93.1989C231.358 93.1989 231.08 93.2758 230.858 93.4297C230.637 93.5812 230.527 93.7741 230.527 94.0085C230.527 94.2169 230.603 94.3814 230.755 94.5021C230.906 94.6229 231.143 94.7235 231.465 94.804L232.274 95.0028C232.762 95.1212 233.126 95.3023 233.365 95.5462C233.604 95.7876 233.723 96.099 233.723 96.4801C233.723 96.7926 233.633 97.072 233.453 97.3182C233.276 97.5644 233.027 97.7585 232.708 97.9006C232.388 98.0426 232.016 98.1136 231.593 98.1136C231.036 98.1136 230.576 97.9929 230.211 97.7514C229.847 97.5099 229.616 97.1572 229.519 96.6932L230.314 96.4943C230.39 96.7879 230.533 97.008 230.744 97.1548C230.957 97.3016 231.235 97.375 231.578 97.375C231.969 97.375 232.279 97.2921 232.509 97.1264C232.741 96.9583 232.857 96.7571 232.857 96.5227C232.857 96.3333 232.791 96.1747 232.658 96.0469C232.525 95.9167 232.322 95.8196 232.047 95.7557L231.138 95.5426C230.639 95.4242 230.272 95.2408 230.037 94.9922C229.805 94.7412 229.689 94.4276 229.689 94.0511C229.689 93.7434 229.776 93.4711 229.948 93.2344C230.124 92.9976 230.362 92.8118 230.662 92.6768C230.965 92.5419 231.309 92.4744 231.692 92.4744C232.232 92.4744 232.656 92.5928 232.963 92.8295C233.273 93.0663 233.494 93.3788 233.624 93.767Z" fill="#9EA4B2"/>
</svg>
