<svg width="427" height="179" viewBox="0 0 427 179" fill="none" xmlns="http://www.w3.org/2000/svg">
<g clip-path="url(#clip0_24171_11954)">
<g clip-path="url(#clip1_24171_11954)">
<rect width="427" height="179" fill="white"/>
<rect width="434" height="181" transform="translate(-2)" fill="url(#paint0_linear_24171_11954)"/>
<line x1="-2" y1="126.899" x2="413.583" y2="126.899" stroke="white" stroke-width="2.88762"/>
<rect x="25.5292" y="116.75" width="20.298" height="20.298" rx="10.149" fill="white" stroke="white" stroke-width="1.35918"/>
<rect x="98.8825" y="116.75" width="20.298" height="20.298" rx="10.149" fill="white" stroke="white" stroke-width="1.35918"/>
<rect x="172.958" y="116.75" width="20.298" height="20.298" rx="10.149" fill="white" stroke="white" stroke-width="1.35918"/>
<rect x="246.68" y="116.68" width="20.298" height="20.298" rx="10.149" fill="white" stroke="white" stroke-width="1.35918"/>
<rect x="320.68" y="117.68" width="20.298" height="20.298" rx="10.149" fill="white" stroke="white" stroke-width="1.35918"/>
<rect x="394.68" y="116.68" width="20.298" height="20.298" rx="10.149" fill="white" stroke="white" stroke-width="1.35918"/>
<g filter="url(#filter0_d_24171_11954)">
<rect x="321.448" y="117.995" width="20" height="20" rx="10" fill="white"/>
</g>
<path d="M330.85 138.647C329.366 138.647 327.968 138.363 326.658 137.795C325.347 137.235 324.192 136.456 323.194 135.459C322.195 134.463 321.411 133.314 320.843 132.012C320.281 130.704 320 129.306 320 127.818C320 126.337 320.281 124.946 320.843 123.645C321.411 122.336 322.191 121.184 323.183 120.187C324.182 119.191 325.337 118.412 326.647 117.851C327.958 117.284 329.355 117 330.84 117C332.324 117 333.721 117.284 335.032 117.851C336.349 118.412 337.504 119.191 338.496 120.187C339.494 121.184 340.278 122.336 340.847 123.645C341.416 124.946 341.7 126.337 341.7 127.818C341.7 129.306 341.416 130.704 340.847 132.012C340.278 133.314 339.494 134.463 338.496 135.459C337.504 136.456 336.353 137.235 335.042 137.795C333.731 138.363 332.334 138.647 330.85 138.647ZM328.988 126.905C329.605 126.898 330.174 126.78 330.694 126.551C331.221 126.323 331.689 125.981 332.098 125.524C331.675 125.012 331.221 124.634 330.735 124.392C330.257 124.143 329.685 124.015 329.019 124.008C328.353 124.008 327.771 124.133 327.271 124.382C326.779 124.624 326.321 125.015 325.898 125.555C326.314 126.005 326.786 126.344 327.313 126.572C327.84 126.794 328.398 126.905 328.988 126.905ZM325.971 129.863C326.332 129.538 326.633 129.137 326.876 128.659C327.126 128.181 327.278 127.721 327.334 127.278C327.015 127.168 326.689 127.008 326.356 126.801C326.023 126.593 325.735 126.365 325.493 126.115C325.395 126.275 325.291 126.441 325.181 126.614C325.076 126.787 324.972 126.977 324.868 127.185C324.667 127.565 324.463 127.87 324.255 128.098C324.054 128.32 323.87 128.5 323.703 128.638C323.627 128.721 323.565 128.804 323.516 128.887C323.468 128.971 323.443 129.064 323.443 129.168C323.443 129.313 323.509 129.431 323.641 129.521C323.773 129.604 323.96 129.645 324.203 129.645C324.286 129.645 324.369 129.645 324.452 129.645C324.536 129.645 324.615 129.645 324.692 129.645C324.948 129.645 325.181 129.663 325.389 129.697C325.604 129.732 325.798 129.787 325.971 129.863ZM328.988 130.891C329.508 130.891 329.962 130.798 330.351 130.611C330.739 130.424 331.089 130.254 331.401 130.102C331.013 129.763 330.704 129.362 330.475 128.898C330.247 128.427 330.115 127.95 330.08 127.465C329.9 127.507 329.716 127.538 329.529 127.559C329.348 127.579 329.172 127.59 328.998 127.59C328.818 127.59 328.638 127.579 328.457 127.559C328.284 127.538 328.111 127.51 327.937 127.476C327.896 127.932 327.76 128.4 327.531 128.877C327.31 129.355 327.011 129.767 326.637 130.113C326.935 130.244 327.271 130.407 327.646 130.6C328.027 130.794 328.475 130.891 328.988 130.891ZM332.015 129.822C332.202 129.767 332.4 129.722 332.608 129.687C332.823 129.652 333.052 129.628 333.295 129.614C333.482 129.607 333.659 129.59 333.825 129.562C333.998 129.535 334.127 129.493 334.21 129.438C334.071 129.209 333.894 128.877 333.679 128.441C333.471 127.998 333.26 127.555 333.045 127.112C332.83 126.662 332.639 126.313 332.473 126.064C332.223 126.32 331.935 126.558 331.609 126.78C331.283 126.994 330.978 127.157 330.694 127.268C330.729 127.711 330.86 128.164 331.089 128.628C331.325 129.092 331.634 129.49 332.015 129.822ZM336.707 128.576C337.338 128.576 337.837 128.472 338.205 128.265C338.579 128.057 338.766 127.78 338.766 127.434C338.766 126.631 338.569 125.984 338.173 125.493C337.785 125.001 337.268 124.755 336.623 124.755C336.076 124.755 335.628 124.911 335.281 125.223C334.935 125.534 334.695 125.949 334.564 126.468C334.48 126.787 334.376 127.029 334.252 127.195C334.127 127.354 334.002 127.479 333.877 127.569C334.002 127.79 334.141 128.053 334.293 128.358C334.453 128.663 334.605 128.953 334.751 129.23C335.084 129.085 335.389 128.939 335.666 128.794C335.944 128.649 336.29 128.576 336.707 128.576ZM336.738 126.998C336.62 126.998 336.519 126.956 336.436 126.873C336.353 126.783 336.311 126.68 336.311 126.562C336.311 126.437 336.353 126.333 336.436 126.25C336.519 126.167 336.62 126.126 336.738 126.126C336.856 126.126 336.956 126.167 337.039 126.25C337.13 126.333 337.175 126.437 337.175 126.562C337.175 126.68 337.13 126.783 337.039 126.873C336.956 126.956 336.856 126.998 336.738 126.998ZM324.744 131.711C325.139 131.711 325.52 131.639 325.888 131.493C326.255 131.348 326.547 131.158 326.762 130.922C326.47 130.756 326.172 130.611 325.867 130.486C325.569 130.362 325.267 130.279 324.962 130.237C324.851 130.265 324.74 130.289 324.629 130.31C324.518 130.324 324.407 130.341 324.296 130.362C324.123 130.403 323.967 130.469 323.828 130.559C323.696 130.649 323.631 130.784 323.631 130.964C323.631 131.199 323.735 131.383 323.943 131.514C324.158 131.646 324.425 131.711 324.744 131.711ZM333.263 131.722C333.589 131.722 333.856 131.656 334.064 131.524C334.279 131.393 334.387 131.206 334.387 130.964C334.387 130.77 334.311 130.614 334.158 130.497C334.005 130.372 333.835 130.299 333.648 130.279C333.53 130.265 333.419 130.258 333.315 130.258C333.218 130.251 333.111 130.241 332.993 130.227C332.806 130.248 332.601 130.296 332.379 130.372C332.157 130.448 331.942 130.535 331.734 130.632C331.526 130.729 331.349 130.822 331.204 130.912C331.412 131.161 331.703 131.358 332.077 131.504C332.459 131.649 332.854 131.722 333.263 131.722Z" fill="#F58800"/>
<g filter="url(#filter1_d_24171_11954)">
<rect x="247.448" y="116.995" width="20" height="20" rx="10" fill="white"/>
</g>
<path d="M256.85 137.647C255.366 137.647 253.968 137.363 252.658 136.795C251.347 136.235 250.192 135.456 249.194 134.459C248.195 133.463 247.411 132.314 246.843 131.012C246.281 129.704 246 128.306 246 126.818C246 125.337 246.281 123.946 246.843 122.645C247.411 121.336 248.191 120.184 249.183 119.187C250.182 118.191 251.337 117.412 252.647 116.851C253.958 116.284 255.355 116 256.84 116C258.324 116 259.721 116.284 261.032 116.851C262.349 117.412 263.504 118.191 264.496 119.187C265.494 120.184 266.278 121.336 266.847 122.645C267.416 123.946 267.7 125.337 267.7 126.818C267.7 128.306 267.416 129.704 266.847 131.012C266.278 132.314 265.494 133.463 264.496 134.459C263.504 135.456 262.353 136.235 261.042 136.795C259.731 137.363 258.334 137.647 256.85 137.647ZM254.988 125.905C255.605 125.898 256.174 125.78 256.694 125.551C257.221 125.323 257.689 124.981 258.098 124.524C257.675 124.012 257.221 123.634 256.735 123.392C256.257 123.143 255.685 123.015 255.019 123.008C254.353 123.008 253.771 123.133 253.271 123.382C252.779 123.624 252.321 124.015 251.898 124.555C252.314 125.005 252.786 125.344 253.313 125.572C253.84 125.794 254.398 125.905 254.988 125.905ZM251.971 128.863C252.332 128.538 252.633 128.137 252.876 127.659C253.126 127.181 253.278 126.721 253.334 126.278C253.015 126.168 252.689 126.008 252.356 125.801C252.023 125.593 251.735 125.365 251.493 125.115C251.395 125.275 251.291 125.441 251.181 125.614C251.076 125.787 250.972 125.977 250.868 126.185C250.667 126.565 250.463 126.87 250.255 127.098C250.054 127.32 249.87 127.5 249.703 127.638C249.627 127.721 249.565 127.804 249.516 127.887C249.468 127.971 249.443 128.064 249.443 128.168C249.443 128.313 249.509 128.431 249.641 128.521C249.773 128.604 249.96 128.645 250.203 128.645C250.286 128.645 250.369 128.645 250.452 128.645C250.536 128.645 250.615 128.645 250.692 128.645C250.948 128.645 251.181 128.663 251.389 128.697C251.604 128.732 251.798 128.787 251.971 128.863ZM254.988 129.891C255.508 129.891 255.962 129.798 256.351 129.611C256.739 129.424 257.089 129.254 257.401 129.102C257.013 128.763 256.704 128.362 256.475 127.898C256.247 127.427 256.115 126.95 256.08 126.465C255.9 126.507 255.716 126.538 255.529 126.559C255.348 126.579 255.172 126.59 254.998 126.59C254.818 126.59 254.638 126.579 254.457 126.559C254.284 126.538 254.111 126.51 253.937 126.476C253.896 126.932 253.76 127.4 253.531 127.877C253.31 128.355 253.011 128.767 252.637 129.113C252.935 129.244 253.271 129.407 253.646 129.6C254.027 129.794 254.475 129.891 254.988 129.891ZM258.015 128.822C258.202 128.767 258.4 128.722 258.608 128.687C258.823 128.652 259.052 128.628 259.295 128.614C259.482 128.607 259.659 128.59 259.825 128.562C259.998 128.535 260.127 128.493 260.21 128.438C260.071 128.209 259.894 127.877 259.679 127.441C259.471 126.998 259.26 126.555 259.045 126.112C258.83 125.662 258.639 125.313 258.473 125.064C258.223 125.32 257.935 125.558 257.609 125.78C257.283 125.994 256.978 126.157 256.694 126.268C256.729 126.711 256.86 127.164 257.089 127.628C257.325 128.092 257.634 128.49 258.015 128.822ZM262.707 127.576C263.338 127.576 263.837 127.472 264.205 127.265C264.579 127.057 264.766 126.78 264.766 126.434C264.766 125.631 264.569 124.984 264.173 124.493C263.785 124.001 263.268 123.755 262.623 123.755C262.076 123.755 261.628 123.911 261.281 124.223C260.935 124.534 260.695 124.949 260.564 125.468C260.48 125.787 260.376 126.029 260.252 126.195C260.127 126.354 260.002 126.479 259.877 126.569C260.002 126.79 260.141 127.053 260.293 127.358C260.453 127.663 260.605 127.953 260.751 128.23C261.084 128.085 261.389 127.939 261.666 127.794C261.944 127.649 262.29 127.576 262.707 127.576ZM262.738 125.998C262.62 125.998 262.519 125.956 262.436 125.873C262.353 125.783 262.311 125.68 262.311 125.562C262.311 125.437 262.353 125.333 262.436 125.25C262.519 125.167 262.62 125.126 262.738 125.126C262.856 125.126 262.956 125.167 263.039 125.25C263.13 125.333 263.175 125.437 263.175 125.562C263.175 125.68 263.13 125.783 263.039 125.873C262.956 125.956 262.856 125.998 262.738 125.998ZM250.744 130.711C251.139 130.711 251.52 130.639 251.888 130.493C252.255 130.348 252.547 130.158 252.762 129.922C252.47 129.756 252.172 129.611 251.867 129.486C251.569 129.362 251.267 129.279 250.962 129.237C250.851 129.265 250.74 129.289 250.629 129.31C250.518 129.324 250.407 129.341 250.296 129.362C250.123 129.403 249.967 129.469 249.828 129.559C249.696 129.649 249.631 129.784 249.631 129.964C249.631 130.199 249.735 130.383 249.943 130.514C250.158 130.646 250.425 130.711 250.744 130.711ZM259.263 130.722C259.589 130.722 259.856 130.656 260.064 130.524C260.279 130.393 260.387 130.206 260.387 129.964C260.387 129.77 260.311 129.614 260.158 129.497C260.005 129.372 259.835 129.299 259.648 129.279C259.53 129.265 259.419 129.258 259.315 129.258C259.218 129.251 259.111 129.241 258.993 129.227C258.806 129.248 258.601 129.296 258.379 129.372C258.157 129.448 257.942 129.535 257.734 129.632C257.526 129.729 257.349 129.822 257.204 129.912C257.412 130.161 257.703 130.358 258.077 130.504C258.459 130.649 258.854 130.722 259.263 130.722Z" fill="#F58800"/>
<g filter="url(#filter2_d_24171_11954)">
<path d="M16.369 64V48.2493H19.699V61.2544H26.4515V64H16.369ZM28.5953 64V52.187H31.8716V64H28.5953ZM30.2411 50.6642C29.7541 50.6642 29.3362 50.5027 28.9876 50.1797C28.644 49.8516 28.4723 49.4594 28.4723 49.003C28.4723 48.5518 28.644 48.1647 28.9876 47.8417C29.3362 47.5136 29.7541 47.3495 30.2411 47.3495C30.7282 47.3495 31.1435 47.5136 31.487 47.8417C31.8357 48.1647 32.01 48.5518 32.01 49.003C32.01 49.4594 31.8357 49.8516 31.487 50.1797C31.1435 50.5027 30.7282 50.6642 30.2411 50.6642ZM34.4961 64V52.187H37.6185V54.2712H37.7569C38.003 53.579 38.4132 53.033 38.9875 52.6331C39.5617 52.2332 40.2487 52.0332 41.0486 52.0332C41.8587 52.0332 42.5483 52.2357 43.1174 52.6408C43.6865 53.0407 44.0659 53.5842 44.2556 54.2712H44.3787C44.6196 53.5944 45.0555 53.0535 45.6861 52.6485C46.3219 52.2383 47.073 52.0332 47.9395 52.0332C49.0418 52.0332 49.9365 52.3844 50.6236 53.0868C51.3157 53.7841 51.6618 54.7737 51.6618 56.0555V64H48.3932V56.7015C48.3932 56.0452 48.2189 55.553 47.8703 55.2249C47.5216 54.8967 47.0858 54.7326 46.5628 54.7326C45.9681 54.7326 45.5041 54.9224 45.1708 55.3018C44.8375 55.676 44.6709 56.1708 44.6709 56.7861V64H41.4946V56.6323C41.4946 56.0529 41.328 55.5914 40.9947 55.2479C40.6666 54.9044 40.2334 54.7326 39.695 54.7326C39.331 54.7326 39.0028 54.8249 38.7106 55.0095C38.4235 55.189 38.1953 55.4428 38.0261 55.7709C37.8569 56.0939 37.7723 56.4733 37.7723 56.9091V64H34.4961ZM54.2497 64V52.187H57.526V64H54.2497ZM55.8956 50.6642C55.4085 50.6642 54.9906 50.5027 54.642 50.1797C54.2985 49.8516 54.1267 49.4594 54.1267 49.003C54.1267 48.5518 54.2985 48.1647 54.642 47.8417C54.9906 47.5136 55.4085 47.3495 55.8956 47.3495C56.3826 47.3495 56.7979 47.5136 57.1415 47.8417C57.4901 48.1647 57.6644 48.5518 57.6644 49.003C57.6644 49.4594 57.4901 49.8516 57.1415 50.1797C56.7979 50.5027 56.3826 50.6642 55.8956 50.6642ZM66.4338 52.187V54.648H59.3199V52.187H66.4338ZM60.9349 49.3568H64.2112V60.37C64.2112 60.6725 64.2573 60.9083 64.3496 61.0775C64.4419 61.2416 64.5701 61.3569 64.7342 61.4236C64.9034 61.4903 65.0982 61.5236 65.3187 61.5236C65.4725 61.5236 65.6263 61.5108 65.7801 61.4851C65.9339 61.4544 66.0518 61.4313 66.1339 61.4159L66.6492 63.8539C66.4851 63.9051 66.2544 63.9641 65.957 64.0308C65.6596 64.1025 65.2982 64.1461 64.8726 64.1615C64.083 64.1923 63.3908 64.0872 62.7961 63.8462C62.2065 63.6052 61.7476 63.2309 61.4194 62.7233C61.0913 62.2157 60.9298 61.5748 60.9349 60.8006V49.3568ZM68.568 64V52.187H71.8443V64H68.568ZM70.2138 50.6642C69.7267 50.6642 69.3089 50.5027 68.9602 50.1797C68.6167 49.8516 68.4449 49.4594 68.4449 49.003C68.4449 48.5518 68.6167 48.1647 68.9602 47.8417C69.3089 47.5136 69.7267 47.3495 70.2138 47.3495C70.7009 47.3495 71.1162 47.5136 71.4597 47.8417C71.8084 48.1647 71.9827 48.5518 71.9827 49.003C71.9827 49.4594 71.8084 49.8516 71.4597 50.1797C71.1162 50.5027 70.7009 50.6642 70.2138 50.6642ZM77.745 57.1706V64H74.4687V52.187H77.5912V54.2712H77.7296C77.9911 53.5842 78.4295 53.0407 79.0447 52.6408C79.66 52.2357 80.406 52.0332 81.2827 52.0332C82.1031 52.0332 82.8183 52.2126 83.4285 52.5715C84.0386 52.9304 84.5128 53.4432 84.8512 54.1097C85.1896 54.7711 85.3588 55.5607 85.3588 56.4784V64H82.0826V57.0629C82.0877 56.34 81.9031 55.776 81.5288 55.371C81.1546 54.9608 80.6393 54.7557 79.983 54.7557C79.5421 54.7557 79.1524 54.8506 78.814 55.0403C78.4807 55.23 78.2193 55.5068 78.0295 55.8709C77.845 56.2298 77.7501 56.663 77.745 57.1706ZM93.263 68.676C92.2017 68.676 91.2916 68.5299 90.5328 68.2376C89.7791 67.9505 89.1792 67.5583 88.7332 67.0609C88.2871 66.5636 87.9974 66.0047 87.8641 65.3843L90.8943 64.9767C90.9865 65.2126 91.1327 65.433 91.3326 65.6381C91.5326 65.8432 91.7966 66.0073 92.1248 66.1303C92.458 66.2585 92.8631 66.3226 93.3399 66.3226C94.0526 66.3226 94.6396 66.1483 95.1011 65.7996C95.5677 65.4561 95.801 64.8793 95.801 64.0692V61.9081H95.6625C95.519 62.2363 95.3036 62.5464 95.0165 62.8387C94.7294 63.1309 94.3602 63.3694 93.909 63.5539C93.4578 63.7385 92.9195 63.8308 92.294 63.8308C91.407 63.8308 90.5994 63.6257 89.8714 63.2155C89.1485 62.8002 88.5716 62.167 88.141 61.3159C87.7154 60.4597 87.5026 59.3779 87.5026 58.0704C87.5026 56.7322 87.7205 55.6145 88.1563 54.7173C88.5922 53.82 89.1715 53.1484 89.8945 52.7023C90.6225 52.2562 91.4198 52.0332 92.2863 52.0332C92.9477 52.0332 93.5014 52.146 93.9475 52.3716C94.3935 52.5921 94.7524 52.8689 95.0242 53.2022C95.3011 53.5303 95.5138 53.8533 95.6625 54.1712H95.7856V52.187H99.0388V64.1154C99.0388 65.1203 98.7927 65.9611 98.3004 66.6379C97.8082 67.3147 97.1263 67.8223 96.2547 68.1607C95.3882 68.5042 94.391 68.676 93.263 68.676ZM93.3322 61.3698C93.8603 61.3698 94.3064 61.239 94.6704 60.9775C95.0396 60.7109 95.3216 60.3315 95.5164 59.8393C95.7164 59.342 95.8163 58.7472 95.8163 58.055C95.8163 57.3629 95.7189 56.763 95.5241 56.2554C95.3293 55.7427 95.0473 55.3453 94.6781 55.0633C94.3089 54.7814 93.8603 54.6404 93.3322 54.6404C92.7939 54.6404 92.3401 54.7865 91.971 55.0787C91.6018 55.3659 91.3224 55.7658 91.1327 56.2785C90.943 56.7912 90.8481 57.3834 90.8481 58.055C90.8481 58.737 90.943 59.3266 91.1327 59.8239C91.3275 60.3161 91.6069 60.6981 91.971 60.9698C92.3401 61.2365 92.7939 61.3698 93.3322 61.3698ZM106.658 68.4299V52.187H109.888V54.1712H110.035C110.178 53.8533 110.386 53.5303 110.658 53.2022C110.934 52.8689 111.293 52.5921 111.734 52.3716C112.18 52.146 112.734 52.0332 113.395 52.0332C114.257 52.0332 115.052 52.2588 115.78 52.71C116.508 53.156 117.09 53.8303 117.525 54.7326C117.961 55.6299 118.179 56.7553 118.179 58.1089C118.179 59.4266 117.966 60.5392 117.541 61.4467C117.12 62.3491 116.546 63.0335 115.818 63.5001C115.095 63.9615 114.285 64.1923 113.388 64.1923C112.752 64.1923 112.211 64.0872 111.765 63.8769C111.324 63.6667 110.963 63.4027 110.681 63.0848C110.399 62.7618 110.183 62.4362 110.035 62.1081H109.935V68.4299H106.658ZM109.865 58.0935C109.865 58.7959 109.963 59.4086 110.158 59.9316C110.352 60.4546 110.634 60.8622 111.004 61.1544C111.373 61.4415 111.821 61.5851 112.35 61.5851C112.883 61.5851 113.334 61.439 113.703 61.1467C114.072 60.8494 114.352 60.4392 114.541 59.9162C114.736 59.3881 114.834 58.7805 114.834 58.0935C114.834 57.4116 114.739 56.8117 114.549 56.2939C114.359 55.776 114.08 55.371 113.711 55.0787C113.342 54.7865 112.888 54.6404 112.35 54.6404C111.816 54.6404 111.365 54.7814 110.996 55.0633C110.632 55.3453 110.352 55.7453 110.158 56.2631C109.963 56.7809 109.865 57.3911 109.865 58.0935ZM123.732 64.223C122.978 64.223 122.306 64.0923 121.717 63.8308C121.127 63.5642 120.661 63.172 120.317 62.6541C119.979 62.1311 119.81 61.48 119.81 60.7007C119.81 60.0444 119.93 59.4932 120.171 59.0472C120.412 58.6011 120.74 58.2422 121.155 57.9705C121.571 57.6987 122.042 57.4936 122.571 57.3552C123.104 57.2168 123.663 57.1193 124.247 57.0629C124.934 56.9912 125.488 56.9245 125.908 56.863C126.329 56.7963 126.634 56.6989 126.824 56.5707C127.013 56.4426 127.108 56.2529 127.108 56.0016V55.9555C127.108 55.4684 126.954 55.0915 126.647 54.8249C126.344 54.5583 125.913 54.425 125.355 54.425C124.765 54.425 124.296 54.5558 123.947 54.8172C123.599 55.0736 123.368 55.3966 123.255 55.7863L120.225 55.5402C120.379 54.8224 120.681 54.202 121.132 53.679C121.584 53.1509 122.165 52.7459 122.878 52.4639C123.596 52.1768 124.427 52.0332 125.37 52.0332C126.026 52.0332 126.654 52.1101 127.254 52.2639C127.859 52.4177 128.395 52.6561 128.862 52.9792C129.333 53.3022 129.705 53.7175 129.977 54.2251C130.248 54.7275 130.384 55.33 130.384 56.0324V64H127.277V62.3619H127.185C126.995 62.731 126.741 63.0566 126.424 63.3386C126.106 63.6155 125.724 63.8334 125.278 63.9923C124.832 64.1461 124.316 64.223 123.732 64.223ZM124.67 61.962C125.152 61.962 125.578 61.8671 125.947 61.6774C126.316 61.4826 126.606 61.2211 126.816 60.8929C127.026 60.5648 127.131 60.1931 127.131 59.7778V58.5242C127.029 58.5908 126.888 58.6524 126.708 58.7088C126.534 58.76 126.336 58.8087 126.116 58.8549C125.895 58.8959 125.675 58.9344 125.455 58.9702C125.234 59.001 125.034 59.0292 124.855 59.0548C124.47 59.1112 124.134 59.201 123.847 59.324C123.56 59.4471 123.337 59.6137 123.178 59.8239C123.019 60.029 122.94 60.2854 122.94 60.593C122.94 61.0391 123.101 61.38 123.424 61.6159C123.752 61.8466 124.168 61.962 124.67 61.962ZM139.209 52.187V54.648H132.096V52.187H139.209ZM133.711 49.3568H136.987V60.37C136.987 60.6725 137.033 60.9083 137.125 61.0775C137.218 61.2416 137.346 61.3569 137.51 61.4236C137.679 61.4903 137.874 61.5236 138.094 61.5236C138.248 61.5236 138.402 61.5108 138.556 61.4851C138.71 61.4544 138.827 61.4313 138.91 61.4159L139.425 63.8539C139.261 63.9051 139.03 63.9641 138.733 64.0308C138.435 64.1025 138.074 64.1461 137.648 64.1615C136.859 64.1923 136.166 64.0872 135.572 63.8462C134.982 63.6052 134.523 63.2309 134.195 62.7233C133.867 62.2157 133.705 61.5748 133.711 60.8006V49.3568ZM144.874 57.1706V64H141.597V48.2493H144.781V54.2712H144.92C145.186 53.5739 145.617 53.0279 146.212 52.6331C146.807 52.2332 147.553 52.0332 148.45 52.0332C149.27 52.0332 149.985 52.2126 150.596 52.5715C151.211 52.9253 151.688 53.4355 152.026 54.102C152.37 54.7634 152.539 55.5556 152.534 56.4784V64H149.257V57.0629C149.263 56.3349 149.078 55.7683 148.704 55.3633C148.335 54.9582 147.817 54.7557 147.15 54.7557C146.704 54.7557 146.309 54.8506 145.966 55.0403C145.627 55.23 145.361 55.5068 145.166 55.8709C144.976 56.2298 144.879 56.663 144.874 57.1706ZM164.941 55.5556L161.941 55.7401C161.89 55.4838 161.78 55.2531 161.611 55.048C161.442 54.8378 161.218 54.6711 160.942 54.5481C160.67 54.4199 160.344 54.3558 159.965 54.3558C159.457 54.3558 159.029 54.4635 158.681 54.6788C158.332 54.889 158.158 55.171 158.158 55.5248C158.158 55.8068 158.27 56.0452 158.496 56.24C158.722 56.4349 159.109 56.5912 159.657 56.7092L161.795 57.1399C162.944 57.3757 163.8 57.7551 164.364 58.2781C164.928 58.8011 165.21 59.4881 165.21 60.3392C165.21 61.1134 164.982 61.7928 164.526 62.3773C164.074 62.9617 163.454 63.4181 162.664 63.7462C161.88 64.0692 160.975 64.2307 159.95 64.2307C158.386 64.2307 157.14 63.9051 156.212 63.254C155.289 62.5977 154.748 61.7056 154.589 60.5776L157.811 60.4084C157.909 60.8852 158.145 61.2493 158.519 61.5005C158.893 61.7466 159.373 61.8697 159.957 61.8697C160.531 61.8697 160.993 61.7594 161.342 61.539C161.695 61.3134 161.875 61.0237 161.88 60.6699C161.875 60.3725 161.749 60.129 161.503 59.9393C161.257 59.7445 160.878 59.5958 160.365 59.4932L158.319 59.0856C157.165 58.8549 156.307 58.455 155.743 57.8859C155.184 57.3167 154.904 56.5912 154.904 55.7094C154.904 54.9505 155.109 54.2968 155.52 53.7482C155.935 53.1996 156.517 52.7766 157.265 52.4793C158.019 52.1819 158.901 52.0332 159.911 52.0332C161.403 52.0332 162.577 52.3485 163.433 52.9792C164.295 53.6098 164.797 54.4686 164.941 55.5556Z" fill="white"/>
</g>
</g>
</g>
<defs>
<filter id="filter0_d_24171_11954" x="317.767" y="117.995" width="27.3623" height="27.3623" filterUnits="userSpaceOnUse" color-interpolation-filters="sRGB">
<feFlood flood-opacity="0" result="BackgroundImageFix"/>
<feColorMatrix in="SourceAlpha" type="matrix" values="0 0 0 0 0 0 0 0 0 0 0 0 0 0 0 0 0 0 127 0" result="hardAlpha"/>
<feOffset dy="3.68113"/>
<feGaussianBlur stdDeviation="1.84056"/>
<feComposite in2="hardAlpha" operator="out"/>
<feColorMatrix type="matrix" values="0 0 0 0 0 0 0 0 0 0 0 0 0 0 0 0 0 0 0.25 0"/>
<feBlend mode="normal" in2="BackgroundImageFix" result="effect1_dropShadow_24171_11954"/>
<feBlend mode="normal" in="SourceGraphic" in2="effect1_dropShadow_24171_11954" result="shape"/>
</filter>
<filter id="filter1_d_24171_11954" x="243.767" y="116.995" width="27.3623" height="27.3623" filterUnits="userSpaceOnUse" color-interpolation-filters="sRGB">
<feFlood flood-opacity="0" result="BackgroundImageFix"/>
<feColorMatrix in="SourceAlpha" type="matrix" values="0 0 0 0 0 0 0 0 0 0 0 0 0 0 0 0 0 0 127 0" result="hardAlpha"/>
<feOffset dy="3.68113"/>
<feGaussianBlur stdDeviation="1.84056"/>
<feComposite in2="hardAlpha" operator="out"/>
<feColorMatrix type="matrix" values="0 0 0 0 0 0 0 0 0 0 0 0 0 0 0 0 0 0 0.25 0"/>
<feBlend mode="normal" in2="BackgroundImageFix" result="effect1_dropShadow_24171_11954"/>
<feBlend mode="normal" in="SourceGraphic" in2="effect1_dropShadow_24171_11954" result="shape"/>
</filter>
<filter id="filter2_d_24171_11954" x="7.70604" y="40.1306" width="166.167" height="38.6519" filterUnits="userSpaceOnUse" color-interpolation-filters="sRGB">
<feFlood flood-opacity="0" result="BackgroundImageFix"/>
<feColorMatrix in="SourceAlpha" type="matrix" values="0 0 0 0 0 0 0 0 0 0 0 0 0 0 0 0 0 0 127 0" result="hardAlpha"/>
<feOffset dy="1.44381"/>
<feGaussianBlur stdDeviation="4.33143"/>
<feComposite in2="hardAlpha" operator="out"/>
<feColorMatrix type="matrix" values="0 0 0 0 0 0 0 0 0 0 0 0 0 0 0 0 0 0 0.25 0"/>
<feBlend mode="normal" in2="BackgroundImageFix" result="effect1_dropShadow_24171_11954"/>
<feBlend mode="normal" in="SourceGraphic" in2="effect1_dropShadow_24171_11954" result="shape"/>
</filter>
<linearGradient id="paint0_linear_24171_11954" x1="95.7793" y1="45.5028" x2="256.358" y2="159.241" gradientUnits="userSpaceOnUse">
<stop stop-color="#1B2040"/>
<stop offset="1" stop-color="#151C2E"/>
</linearGradient>
<clipPath id="clip0_24171_11954">
<rect width="427" height="179" fill="white"/>
</clipPath>
<clipPath id="clip1_24171_11954">
<rect width="427" height="179" fill="white"/>
</clipPath>
</defs>
</svg>
