<svg width="434" height="181" viewBox="0 0 434 181" fill="none" xmlns="http://www.w3.org/2000/svg">
<g clip-path="url(#clip0_24171_11954)">
<g clip-path="url(#clip1_24171_11954)">
<rect width="434" height="181" fill="white"/>
<rect width="434" height="181" fill="url(#paint0_linear_24171_11954)"/>
<line x1="5" y1="126.899" x2="420.583" y2="126.899" stroke="white" stroke-width="2.88762"/>
<rect x="32.5292" y="116.75" width="20.298" height="20.298" rx="10.149" fill="white" stroke="white" stroke-width="1.35918"/>
<rect x="105.882" y="116.75" width="20.298" height="20.298" rx="10.149" fill="white" stroke="white" stroke-width="1.35918"/>
<rect x="179.958" y="116.75" width="20.298" height="20.298" rx="10.149" fill="white" stroke="white" stroke-width="1.35918"/>
<rect x="253.68" y="116.68" width="20.298" height="20.298" rx="10.149" fill="white" stroke="white" stroke-width="1.35918"/>
<rect x="327.68" y="117.68" width="20.298" height="20.298" rx="10.149" fill="white" stroke="white" stroke-width="1.35918"/>
<rect x="401.68" y="116.68" width="20.298" height="20.298" rx="10.149" fill="white" stroke="white" stroke-width="1.35918"/>
<g filter="url(#filter0_d_24171_11954)">
<rect x="328.448" y="117.995" width="20" height="20" rx="10" fill="white"/>
</g>
<path d="M337.85 138.647C336.366 138.647 334.968 138.363 333.658 137.795C332.347 137.235 331.192 136.456 330.194 135.459C329.195 134.463 328.411 133.314 327.843 132.012C327.281 130.704 327 129.306 327 127.818C327 126.337 327.281 124.946 327.843 123.645C328.411 122.336 329.191 121.184 330.183 120.187C331.182 119.191 332.337 118.412 333.647 117.851C334.958 117.284 336.355 117 337.84 117C339.324 117 340.721 117.284 342.032 117.851C343.349 118.412 344.504 119.191 345.496 120.187C346.494 121.184 347.278 122.336 347.847 123.645C348.416 124.946 348.7 126.337 348.7 127.818C348.7 129.306 348.416 130.704 347.847 132.012C347.278 133.314 346.494 134.463 345.496 135.459C344.504 136.456 343.353 137.235 342.042 137.795C340.731 138.363 339.334 138.647 337.85 138.647ZM335.988 126.905C336.605 126.898 337.174 126.78 337.694 126.551C338.221 126.323 338.689 125.981 339.098 125.524C338.675 125.012 338.221 124.634 337.735 124.392C337.257 124.143 336.685 124.015 336.019 124.008C335.353 124.008 334.771 124.133 334.271 124.382C333.779 124.624 333.321 125.015 332.898 125.555C333.314 126.005 333.786 126.344 334.313 126.572C334.84 126.794 335.398 126.905 335.988 126.905ZM332.971 129.863C333.332 129.538 333.633 129.137 333.876 128.659C334.126 128.181 334.278 127.721 334.334 127.278C334.015 127.168 333.689 127.008 333.356 126.801C333.023 126.593 332.735 126.365 332.493 126.115C332.395 126.275 332.291 126.441 332.181 126.614C332.076 126.787 331.972 126.977 331.868 127.185C331.667 127.565 331.463 127.87 331.255 128.098C331.054 128.32 330.87 128.5 330.703 128.638C330.627 128.721 330.565 128.804 330.516 128.887C330.468 128.971 330.443 129.064 330.443 129.168C330.443 129.313 330.509 129.431 330.641 129.521C330.773 129.604 330.96 129.645 331.203 129.645C331.286 129.645 331.369 129.645 331.452 129.645C331.536 129.645 331.615 129.645 331.692 129.645C331.948 129.645 332.181 129.663 332.389 129.697C332.604 129.732 332.798 129.787 332.971 129.863ZM335.988 130.891C336.508 130.891 336.962 130.798 337.351 130.611C337.739 130.424 338.089 130.254 338.401 130.102C338.013 129.763 337.704 129.362 337.475 128.898C337.247 128.427 337.115 127.95 337.08 127.465C336.9 127.507 336.716 127.538 336.529 127.559C336.348 127.579 336.172 127.59 335.998 127.59C335.818 127.59 335.638 127.579 335.457 127.559C335.284 127.538 335.111 127.51 334.937 127.476C334.896 127.932 334.76 128.4 334.531 128.877C334.31 129.355 334.011 129.767 333.637 130.113C333.935 130.244 334.271 130.407 334.646 130.6C335.027 130.794 335.475 130.891 335.988 130.891ZM339.015 129.822C339.202 129.767 339.4 129.722 339.608 129.687C339.823 129.652 340.052 129.628 340.295 129.614C340.482 129.607 340.659 129.59 340.825 129.562C340.998 129.535 341.127 129.493 341.21 129.438C341.071 129.209 340.894 128.877 340.679 128.441C340.471 127.998 340.26 127.555 340.045 127.112C339.83 126.662 339.639 126.313 339.473 126.064C339.223 126.32 338.935 126.558 338.609 126.78C338.283 126.994 337.978 127.157 337.694 127.268C337.729 127.711 337.86 128.164 338.089 128.628C338.325 129.092 338.634 129.49 339.015 129.822ZM343.707 128.576C344.338 128.576 344.837 128.472 345.205 128.265C345.579 128.057 345.766 127.78 345.766 127.434C345.766 126.631 345.569 125.984 345.173 125.493C344.785 125.001 344.268 124.755 343.623 124.755C343.076 124.755 342.628 124.911 342.281 125.223C341.935 125.534 341.695 125.949 341.564 126.468C341.48 126.787 341.376 127.029 341.252 127.195C341.127 127.354 341.002 127.479 340.877 127.569C341.002 127.79 341.141 128.053 341.293 128.358C341.453 128.663 341.605 128.953 341.751 129.23C342.084 129.085 342.389 128.939 342.666 128.794C342.944 128.649 343.29 128.576 343.707 128.576ZM343.738 126.998C343.62 126.998 343.519 126.956 343.436 126.873C343.353 126.783 343.311 126.68 343.311 126.562C343.311 126.437 343.353 126.333 343.436 126.25C343.519 126.167 343.62 126.126 343.738 126.126C343.856 126.126 343.956 126.167 344.039 126.25C344.13 126.333 344.175 126.437 344.175 126.562C344.175 126.68 344.13 126.783 344.039 126.873C343.956 126.956 343.856 126.998 343.738 126.998ZM331.744 131.711C332.139 131.711 332.52 131.639 332.888 131.493C333.255 131.348 333.547 131.158 333.762 130.922C333.47 130.756 333.172 130.611 332.867 130.486C332.569 130.362 332.267 130.279 331.962 130.237C331.851 130.265 331.74 130.289 331.629 130.31C331.518 130.324 331.407 130.341 331.296 130.362C331.123 130.403 330.967 130.469 330.828 130.559C330.696 130.649 330.631 130.784 330.631 130.964C330.631 131.199 330.735 131.383 330.943 131.514C331.158 131.646 331.425 131.711 331.744 131.711ZM340.263 131.722C340.589 131.722 340.856 131.656 341.064 131.524C341.279 131.393 341.387 131.206 341.387 130.964C341.387 130.77 341.311 130.614 341.158 130.497C341.005 130.372 340.835 130.299 340.648 130.279C340.53 130.265 340.419 130.258 340.315 130.258C340.218 130.251 340.111 130.241 339.993 130.227C339.806 130.248 339.601 130.296 339.379 130.372C339.157 130.448 338.942 130.535 338.734 130.632C338.526 130.729 338.349 130.822 338.204 130.912C338.412 131.161 338.703 131.358 339.077 131.504C339.459 131.649 339.854 131.722 340.263 131.722Z" fill="#F58800"/>
<g filter="url(#filter1_d_24171_11954)">
<rect x="254.448" y="116.995" width="20" height="20" rx="10" fill="white"/>
</g>
<path d="M263.85 137.647C262.366 137.647 260.968 137.363 259.658 136.795C258.347 136.235 257.192 135.456 256.194 134.459C255.195 133.463 254.411 132.314 253.843 131.012C253.281 129.704 253 128.306 253 126.818C253 125.337 253.281 123.946 253.843 122.645C254.411 121.336 255.191 120.184 256.183 119.187C257.182 118.191 258.337 117.412 259.647 116.851C260.958 116.284 262.355 116 263.84 116C265.324 116 266.721 116.284 268.032 116.851C269.349 117.412 270.504 118.191 271.496 119.187C272.494 120.184 273.278 121.336 273.847 122.645C274.416 123.946 274.7 125.337 274.7 126.818C274.7 128.306 274.416 129.704 273.847 131.012C273.278 132.314 272.494 133.463 271.496 134.459C270.504 135.456 269.353 136.235 268.042 136.795C266.731 137.363 265.334 137.647 263.85 137.647ZM261.988 125.905C262.605 125.898 263.174 125.78 263.694 125.551C264.221 125.323 264.689 124.981 265.098 124.524C264.675 124.012 264.221 123.634 263.735 123.392C263.257 123.143 262.685 123.015 262.019 123.008C261.353 123.008 260.771 123.133 260.271 123.382C259.779 123.624 259.321 124.015 258.898 124.555C259.314 125.005 259.786 125.344 260.313 125.572C260.84 125.794 261.398 125.905 261.988 125.905ZM258.971 128.863C259.332 128.538 259.633 128.137 259.876 127.659C260.126 127.181 260.278 126.721 260.334 126.278C260.015 126.168 259.689 126.008 259.356 125.801C259.023 125.593 258.735 125.365 258.493 125.115C258.395 125.275 258.291 125.441 258.181 125.614C258.076 125.787 257.972 125.977 257.868 126.185C257.667 126.565 257.463 126.87 257.255 127.098C257.054 127.32 256.87 127.5 256.703 127.638C256.627 127.721 256.565 127.804 256.516 127.887C256.468 127.971 256.443 128.064 256.443 128.168C256.443 128.313 256.509 128.431 256.641 128.521C256.773 128.604 256.96 128.645 257.203 128.645C257.286 128.645 257.369 128.645 257.452 128.645C257.536 128.645 257.615 128.645 257.692 128.645C257.948 128.645 258.181 128.663 258.389 128.697C258.604 128.732 258.798 128.787 258.971 128.863ZM261.988 129.891C262.508 129.891 262.962 129.798 263.351 129.611C263.739 129.424 264.089 129.254 264.401 129.102C264.013 128.763 263.704 128.362 263.475 127.898C263.247 127.427 263.115 126.95 263.08 126.465C262.9 126.507 262.716 126.538 262.529 126.559C262.348 126.579 262.172 126.59 261.998 126.59C261.818 126.59 261.638 126.579 261.457 126.559C261.284 126.538 261.111 126.51 260.937 126.476C260.896 126.932 260.76 127.4 260.531 127.877C260.31 128.355 260.011 128.767 259.637 129.113C259.935 129.244 260.271 129.407 260.646 129.6C261.027 129.794 261.475 129.891 261.988 129.891ZM265.015 128.822C265.202 128.767 265.4 128.722 265.608 128.687C265.823 128.652 266.052 128.628 266.295 128.614C266.482 128.607 266.659 128.59 266.825 128.562C266.998 128.535 267.127 128.493 267.21 128.438C267.071 128.209 266.894 127.877 266.679 127.441C266.471 126.998 266.26 126.555 266.045 126.112C265.83 125.662 265.639 125.313 265.473 125.064C265.223 125.32 264.935 125.558 264.609 125.78C264.283 125.994 263.978 126.157 263.694 126.268C263.729 126.711 263.86 127.164 264.089 127.628C264.325 128.092 264.634 128.49 265.015 128.822ZM269.707 127.576C270.338 127.576 270.837 127.472 271.205 127.265C271.579 127.057 271.766 126.78 271.766 126.434C271.766 125.631 271.569 124.984 271.173 124.493C270.785 124.001 270.268 123.755 269.623 123.755C269.076 123.755 268.628 123.911 268.281 124.223C267.935 124.534 267.695 124.949 267.564 125.468C267.48 125.787 267.376 126.029 267.252 126.195C267.127 126.354 267.002 126.479 266.877 126.569C267.002 126.79 267.141 127.053 267.293 127.358C267.453 127.663 267.605 127.953 267.751 128.23C268.084 128.085 268.389 127.939 268.666 127.794C268.944 127.649 269.29 127.576 269.707 127.576ZM269.738 125.998C269.62 125.998 269.519 125.956 269.436 125.873C269.353 125.783 269.311 125.68 269.311 125.562C269.311 125.437 269.353 125.333 269.436 125.25C269.519 125.167 269.62 125.126 269.738 125.126C269.856 125.126 269.956 125.167 270.039 125.25C270.13 125.333 270.175 125.437 270.175 125.562C270.175 125.68 270.13 125.783 270.039 125.873C269.956 125.956 269.856 125.998 269.738 125.998ZM257.744 130.711C258.139 130.711 258.52 130.639 258.888 130.493C259.255 130.348 259.547 130.158 259.762 129.922C259.47 129.756 259.172 129.611 258.867 129.486C258.569 129.362 258.267 129.279 257.962 129.237C257.851 129.265 257.74 129.289 257.629 129.31C257.518 129.324 257.407 129.341 257.296 129.362C257.123 129.403 256.967 129.469 256.828 129.559C256.696 129.649 256.631 129.784 256.631 129.964C256.631 130.199 256.735 130.383 256.943 130.514C257.158 130.646 257.425 130.711 257.744 130.711ZM266.263 130.722C266.589 130.722 266.856 130.656 267.064 130.524C267.279 130.393 267.387 130.206 267.387 129.964C267.387 129.77 267.311 129.614 267.158 129.497C267.005 129.372 266.835 129.299 266.648 129.279C266.53 129.265 266.419 129.258 266.315 129.258C266.218 129.251 266.111 129.241 265.993 129.227C265.806 129.248 265.601 129.296 265.379 129.372C265.157 129.448 264.942 129.535 264.734 129.632C264.526 129.729 264.349 129.822 264.204 129.912C264.412 130.161 264.703 130.358 265.077 130.504C265.459 130.649 265.854 130.722 266.263 130.722Z" fill="#F58800"/>
<g filter="url(#filter2_d_24171_11954)">
<path d="M18.369 64V48.2493H21.699V61.2544H28.4515V64H18.369ZM30.5953 64V52.187H33.8716V64H30.5953ZM32.2411 50.6642C31.7541 50.6642 31.3362 50.5027 30.9876 50.1797C30.644 49.8516 30.4723 49.4594 30.4723 49.003C30.4723 48.5518 30.644 48.1647 30.9876 47.8417C31.3362 47.5136 31.7541 47.3495 32.2411 47.3495C32.7282 47.3495 33.1435 47.5136 33.487 47.8417C33.8357 48.1647 34.01 48.5518 34.01 49.003C34.01 49.4594 33.8357 49.8516 33.487 50.1797C33.1435 50.5027 32.7282 50.6642 32.2411 50.6642ZM36.4961 64V52.187H39.6185V54.2712H39.7569C40.003 53.579 40.4132 53.033 40.9875 52.6331C41.5617 52.2332 42.2487 52.0332 43.0486 52.0332C43.8587 52.0332 44.5483 52.2357 45.1174 52.6408C45.6865 53.0407 46.0659 53.5842 46.2556 54.2712H46.3787C46.6196 53.5944 47.0555 53.0535 47.6861 52.6485C48.3219 52.2383 49.073 52.0332 49.9395 52.0332C51.0418 52.0332 51.9365 52.3844 52.6236 53.0868C53.3157 53.7841 53.6618 54.7737 53.6618 56.0555V64H50.3932V56.7015C50.3932 56.0452 50.2189 55.553 49.8703 55.2249C49.5216 54.8967 49.0858 54.7326 48.5628 54.7326C47.9681 54.7326 47.5041 54.9224 47.1708 55.3018C46.8375 55.676 46.6709 56.1708 46.6709 56.7861V64H43.4946V56.6323C43.4946 56.0529 43.328 55.5914 42.9947 55.2479C42.6666 54.9044 42.2334 54.7326 41.695 54.7326C41.331 54.7326 41.0028 54.8249 40.7106 55.0095C40.4235 55.189 40.1953 55.4428 40.0261 55.7709C39.8569 56.0939 39.7723 56.4733 39.7723 56.9091V64H36.4961ZM56.2497 64V52.187H59.526V64H56.2497ZM57.8956 50.6642C57.4085 50.6642 56.9906 50.5027 56.642 50.1797C56.2985 49.8516 56.1267 49.4594 56.1267 49.003C56.1267 48.5518 56.2985 48.1647 56.642 47.8417C56.9906 47.5136 57.4085 47.3495 57.8956 47.3495C58.3826 47.3495 58.7979 47.5136 59.1415 47.8417C59.4901 48.1647 59.6644 48.5518 59.6644 49.003C59.6644 49.4594 59.4901 49.8516 59.1415 50.1797C58.7979 50.5027 58.3826 50.6642 57.8956 50.6642ZM68.4338 52.187V54.648H61.3199V52.187H68.4338ZM62.9349 49.3568H66.2112V60.37C66.2112 60.6725 66.2573 60.9083 66.3496 61.0775C66.4419 61.2416 66.5701 61.3569 66.7342 61.4236C66.9034 61.4903 67.0982 61.5236 67.3187 61.5236C67.4725 61.5236 67.6263 61.5108 67.7801 61.4851C67.9339 61.4544 68.0518 61.4313 68.1339 61.4159L68.6492 63.8539C68.4851 63.9051 68.2544 63.9641 67.957 64.0308C67.6596 64.1025 67.2982 64.1461 66.8726 64.1615C66.083 64.1923 65.3908 64.0872 64.7961 63.8462C64.2065 63.6052 63.7476 63.2309 63.4194 62.7233C63.0913 62.2157 62.9298 61.5748 62.9349 60.8006V49.3568ZM70.568 64V52.187H73.8443V64H70.568ZM72.2138 50.6642C71.7267 50.6642 71.3089 50.5027 70.9602 50.1797C70.6167 49.8516 70.4449 49.4594 70.4449 49.003C70.4449 48.5518 70.6167 48.1647 70.9602 47.8417C71.3089 47.5136 71.7267 47.3495 72.2138 47.3495C72.7009 47.3495 73.1162 47.5136 73.4597 47.8417C73.8084 48.1647 73.9827 48.5518 73.9827 49.003C73.9827 49.4594 73.8084 49.8516 73.4597 50.1797C73.1162 50.5027 72.7009 50.6642 72.2138 50.6642ZM79.745 57.1706V64H76.4687V52.187H79.5912V54.2712H79.7296C79.9911 53.5842 80.4295 53.0407 81.0447 52.6408C81.66 52.2357 82.406 52.0332 83.2827 52.0332C84.1031 52.0332 84.8183 52.2126 85.4285 52.5715C86.0386 52.9304 86.5128 53.4432 86.8512 54.1097C87.1896 54.7711 87.3588 55.5607 87.3588 56.4784V64H84.0826V57.0629C84.0877 56.34 83.9031 55.776 83.5288 55.371C83.1546 54.9608 82.6393 54.7557 81.983 54.7557C81.5421 54.7557 81.1524 54.8506 80.814 55.0403C80.4807 55.23 80.2193 55.5068 80.0295 55.8709C79.845 56.2298 79.7501 56.663 79.745 57.1706ZM95.263 68.676C94.2017 68.676 93.2916 68.5299 92.5328 68.2376C91.7791 67.9505 91.1792 67.5583 90.7332 67.0609C90.2871 66.5636 89.9974 66.0047 89.8641 65.3843L92.8943 64.9767C92.9865 65.2126 93.1327 65.433 93.3326 65.6381C93.5326 65.8432 93.7966 66.0073 94.1248 66.1303C94.458 66.2585 94.8631 66.3226 95.3399 66.3226C96.0526 66.3226 96.6396 66.1483 97.1011 65.7996C97.5677 65.4561 97.801 64.8793 97.801 64.0692V61.9081H97.6625C97.519 62.2363 97.3036 62.5464 97.0165 62.8387C96.7294 63.1309 96.3602 63.3694 95.909 63.5539C95.4578 63.7385 94.9195 63.8308 94.294 63.8308C93.407 63.8308 92.5994 63.6257 91.8714 63.2155C91.1485 62.8002 90.5716 62.167 90.141 61.3159C89.7154 60.4597 89.5026 59.3779 89.5026 58.0704C89.5026 56.7322 89.7205 55.6145 90.1563 54.7173C90.5922 53.82 91.1715 53.1484 91.8945 52.7023C92.6225 52.2562 93.4198 52.0332 94.2863 52.0332C94.9477 52.0332 95.5014 52.146 95.9475 52.3716C96.3935 52.5921 96.7524 52.8689 97.0242 53.2022C97.3011 53.5303 97.5138 53.8533 97.6625 54.1712H97.7856V52.187H101.039V64.1154C101.039 65.1203 100.793 65.9611 100.3 66.6379C99.8082 67.3147 99.1263 67.8223 98.2547 68.1607C97.3882 68.5042 96.391 68.676 95.263 68.676ZM95.3322 61.3698C95.8603 61.3698 96.3064 61.239 96.6704 60.9775C97.0396 60.7109 97.3216 60.3315 97.5164 59.8393C97.7164 59.342 97.8163 58.7472 97.8163 58.055C97.8163 57.3629 97.7189 56.763 97.5241 56.2554C97.3293 55.7427 97.0473 55.3453 96.6781 55.0633C96.3089 54.7814 95.8603 54.6404 95.3322 54.6404C94.7939 54.6404 94.3401 54.7865 93.971 55.0787C93.6018 55.3659 93.3224 55.7658 93.1327 56.2785C92.943 56.7912 92.8481 57.3834 92.8481 58.055C92.8481 58.737 92.943 59.3266 93.1327 59.8239C93.3275 60.3161 93.6069 60.6981 93.971 60.9698C94.3401 61.2365 94.7939 61.3698 95.3322 61.3698ZM108.658 68.4299V52.187H111.888V54.1712H112.035C112.178 53.8533 112.386 53.5303 112.658 53.2022C112.934 52.8689 113.293 52.5921 113.734 52.3716C114.18 52.146 114.734 52.0332 115.395 52.0332C116.257 52.0332 117.052 52.2588 117.78 52.71C118.508 53.156 119.09 53.8303 119.525 54.7326C119.961 55.6299 120.179 56.7553 120.179 58.1089C120.179 59.4266 119.966 60.5392 119.541 61.4467C119.12 62.3491 118.546 63.0335 117.818 63.5001C117.095 63.9615 116.285 64.1923 115.388 64.1923C114.752 64.1923 114.211 64.0872 113.765 63.8769C113.324 63.6667 112.963 63.4027 112.681 63.0848C112.399 62.7618 112.183 62.4362 112.035 62.1081H111.935V68.4299H108.658ZM111.865 58.0935C111.865 58.7959 111.963 59.4086 112.158 59.9316C112.352 60.4546 112.634 60.8622 113.004 61.1544C113.373 61.4415 113.821 61.5851 114.35 61.5851C114.883 61.5851 115.334 61.439 115.703 61.1467C116.072 60.8494 116.352 60.4392 116.541 59.9162C116.736 59.3881 116.834 58.7805 116.834 58.0935C116.834 57.4116 116.739 56.8117 116.549 56.2939C116.359 55.776 116.08 55.371 115.711 55.0787C115.342 54.7865 114.888 54.6404 114.35 54.6404C113.816 54.6404 113.365 54.7814 112.996 55.0633C112.632 55.3453 112.352 55.7453 112.158 56.2631C111.963 56.7809 111.865 57.3911 111.865 58.0935ZM125.732 64.223C124.978 64.223 124.306 64.0923 123.717 63.8308C123.127 63.5642 122.661 63.172 122.317 62.6541C121.979 62.1311 121.81 61.48 121.81 60.7007C121.81 60.0444 121.93 59.4932 122.171 59.0472C122.412 58.6011 122.74 58.2422 123.155 57.9705C123.571 57.6987 124.042 57.4936 124.571 57.3552C125.104 57.2168 125.663 57.1193 126.247 57.0629C126.934 56.9912 127.488 56.9245 127.908 56.863C128.329 56.7963 128.634 56.6989 128.824 56.5707C129.013 56.4426 129.108 56.2529 129.108 56.0016V55.9555C129.108 55.4684 128.954 55.0915 128.647 54.8249C128.344 54.5583 127.913 54.425 127.355 54.425C126.765 54.425 126.296 54.5558 125.947 54.8172C125.599 55.0736 125.368 55.3966 125.255 55.7863L122.225 55.5402C122.379 54.8224 122.681 54.202 123.132 53.679C123.584 53.1509 124.165 52.7459 124.878 52.4639C125.596 52.1768 126.427 52.0332 127.37 52.0332C128.026 52.0332 128.654 52.1101 129.254 52.2639C129.859 52.4177 130.395 52.6561 130.862 52.9792C131.333 53.3022 131.705 53.7175 131.977 54.2251C132.248 54.7275 132.384 55.33 132.384 56.0324V64H129.277V62.3619H129.185C128.995 62.731 128.741 63.0566 128.424 63.3386C128.106 63.6155 127.724 63.8334 127.278 63.9923C126.832 64.1461 126.316 64.223 125.732 64.223ZM126.67 61.962C127.152 61.962 127.578 61.8671 127.947 61.6774C128.316 61.4826 128.606 61.2211 128.816 60.8929C129.026 60.5648 129.131 60.1931 129.131 59.7778V58.5242C129.029 58.5908 128.888 58.6524 128.708 58.7088C128.534 58.76 128.336 58.8087 128.116 58.8549C127.895 58.8959 127.675 58.9344 127.455 58.9702C127.234 59.001 127.034 59.0292 126.855 59.0548C126.47 59.1112 126.134 59.201 125.847 59.324C125.56 59.4471 125.337 59.6137 125.178 59.8239C125.019 60.029 124.94 60.2854 124.94 60.593C124.94 61.0391 125.101 61.38 125.424 61.6159C125.752 61.8466 126.168 61.962 126.67 61.962ZM141.209 52.187V54.648H134.096V52.187H141.209ZM135.711 49.3568H138.987V60.37C138.987 60.6725 139.033 60.9083 139.125 61.0775C139.218 61.2416 139.346 61.3569 139.51 61.4236C139.679 61.4903 139.874 61.5236 140.094 61.5236C140.248 61.5236 140.402 61.5108 140.556 61.4851C140.71 61.4544 140.827 61.4313 140.91 61.4159L141.425 63.8539C141.261 63.9051 141.03 63.9641 140.733 64.0308C140.435 64.1025 140.074 64.1461 139.648 64.1615C138.859 64.1923 138.166 64.0872 137.572 63.8462C136.982 63.6052 136.523 63.2309 136.195 62.7233C135.867 62.2157 135.705 61.5748 135.711 60.8006V49.3568ZM146.874 57.1706V64H143.597V48.2493H146.781V54.2712H146.92C147.186 53.5739 147.617 53.0279 148.212 52.6331C148.807 52.2332 149.553 52.0332 150.45 52.0332C151.27 52.0332 151.985 52.2126 152.596 52.5715C153.211 52.9253 153.688 53.4355 154.026 54.102C154.37 54.7634 154.539 55.5556 154.534 56.4784V64H151.257V57.0629C151.263 56.3349 151.078 55.7683 150.704 55.3633C150.335 54.9582 149.817 54.7557 149.15 54.7557C148.704 54.7557 148.309 54.8506 147.966 55.0403C147.627 55.23 147.361 55.5068 147.166 55.8709C146.976 56.2298 146.879 56.663 146.874 57.1706ZM166.941 55.5556L163.941 55.7401C163.89 55.4838 163.78 55.2531 163.611 55.048C163.442 54.8378 163.218 54.6711 162.942 54.5481C162.67 54.4199 162.344 54.3558 161.965 54.3558C161.457 54.3558 161.029 54.4635 160.681 54.6788C160.332 54.889 160.158 55.171 160.158 55.5248C160.158 55.8068 160.27 56.0452 160.496 56.24C160.722 56.4349 161.109 56.5912 161.657 56.7092L163.795 57.1399C164.944 57.3757 165.8 57.7551 166.364 58.2781C166.928 58.8011 167.21 59.4881 167.21 60.3392C167.21 61.1134 166.982 61.7928 166.526 62.3773C166.074 62.9617 165.454 63.4181 164.664 63.7462C163.88 64.0692 162.975 64.2307 161.95 64.2307C160.386 64.2307 159.14 63.9051 158.212 63.254C157.289 62.5977 156.748 61.7056 156.589 60.5776L159.811 60.4084C159.909 60.8852 160.145 61.2493 160.519 61.5005C160.893 61.7466 161.373 61.8697 161.957 61.8697C162.531 61.8697 162.993 61.7594 163.342 61.539C163.695 61.3134 163.875 61.0237 163.88 60.6699C163.875 60.3725 163.749 60.129 163.503 59.9393C163.257 59.7445 162.878 59.5958 162.365 59.4932L160.319 59.0856C159.165 58.8549 158.307 58.455 157.743 57.8859C157.184 57.3167 156.904 56.5912 156.904 55.7094C156.904 54.9505 157.109 54.2968 157.52 53.7482C157.935 53.1996 158.517 52.7766 159.265 52.4793C160.019 52.1819 160.901 52.0332 161.911 52.0332C163.403 52.0332 164.577 52.3485 165.433 52.9792C166.295 53.6098 166.797 54.4686 166.941 55.5556Z" fill="white"/>
</g>
</g>
</g>
<defs>
<filter id="filter0_d_24171_11954" x="324.767" y="117.995" width="27.3623" height="27.3623" filterUnits="userSpaceOnUse" color-interpolation-filters="sRGB">
<feFlood flood-opacity="0" result="BackgroundImageFix"/>
<feColorMatrix in="SourceAlpha" type="matrix" values="0 0 0 0 0 0 0 0 0 0 0 0 0 0 0 0 0 0 127 0" result="hardAlpha"/>
<feOffset dy="3.68113"/>
<feGaussianBlur stdDeviation="1.84056"/>
<feComposite in2="hardAlpha" operator="out"/>
<feColorMatrix type="matrix" values="0 0 0 0 0 0 0 0 0 0 0 0 0 0 0 0 0 0 0.25 0"/>
<feBlend mode="normal" in2="BackgroundImageFix" result="effect1_dropShadow_24171_11954"/>
<feBlend mode="normal" in="SourceGraphic" in2="effect1_dropShadow_24171_11954" result="shape"/>
</filter>
<filter id="filter1_d_24171_11954" x="250.767" y="116.995" width="27.3623" height="27.3623" filterUnits="userSpaceOnUse" color-interpolation-filters="sRGB">
<feFlood flood-opacity="0" result="BackgroundImageFix"/>
<feColorMatrix in="SourceAlpha" type="matrix" values="0 0 0 0 0 0 0 0 0 0 0 0 0 0 0 0 0 0 127 0" result="hardAlpha"/>
<feOffset dy="3.68113"/>
<feGaussianBlur stdDeviation="1.84056"/>
<feComposite in2="hardAlpha" operator="out"/>
<feColorMatrix type="matrix" values="0 0 0 0 0 0 0 0 0 0 0 0 0 0 0 0 0 0 0.25 0"/>
<feBlend mode="normal" in2="BackgroundImageFix" result="effect1_dropShadow_24171_11954"/>
<feBlend mode="normal" in="SourceGraphic" in2="effect1_dropShadow_24171_11954" result="shape"/>
</filter>
<filter id="filter2_d_24171_11954" x="9.70604" y="40.1306" width="166.167" height="38.6519" filterUnits="userSpaceOnUse" color-interpolation-filters="sRGB">
<feFlood flood-opacity="0" result="BackgroundImageFix"/>
<feColorMatrix in="SourceAlpha" type="matrix" values="0 0 0 0 0 0 0 0 0 0 0 0 0 0 0 0 0 0 127 0" result="hardAlpha"/>
<feOffset dy="1.44381"/>
<feGaussianBlur stdDeviation="4.33143"/>
<feComposite in2="hardAlpha" operator="out"/>
<feColorMatrix type="matrix" values="0 0 0 0 0 0 0 0 0 0 0 0 0 0 0 0 0 0 0.25 0"/>
<feBlend mode="normal" in2="BackgroundImageFix" result="effect1_dropShadow_24171_11954"/>
<feBlend mode="normal" in="SourceGraphic" in2="effect1_dropShadow_24171_11954" result="shape"/>
</filter>
<linearGradient id="paint0_linear_24171_11954" x1="95.7793" y1="45.5028" x2="256.358" y2="159.241" gradientUnits="userSpaceOnUse">
<stop stop-color="#1B2040"/>
<stop offset="1" stop-color="#151C2E"/>
</linearGradient>
<clipPath id="clip0_24171_11954">
<rect width="434" height="181" fill="white"/>
</clipPath>
<clipPath id="clip1_24171_11954">
<rect width="434" height="181" fill="white"/>
</clipPath>
</defs>
</svg>
