<svg xmlns='http://www.w3.org/2000/svg'>    <>
    <LightMode>
      <path id="Path" fill="#000000" stroke="none" d="M 11.246 12.70425 C 12.53925 12.70425 13.59025 13.394749 14.129 14.59375 L 14.1695 14.68825 L 16.338499 13.95075 L 16.29475 13.8395 C 15.456 11.7915 13.5195 10.521999 11.246 10.521999 C 9.646 10.521999 8.346 11.033749 7.27175 12.088001 C 6.204 13.1355 5.665 14.452499 5.665 16.001751 C 5.665 17.541 6.2075 18.851 7.27175 19.89525 C 8.346 20.949499 9.64625 21.46125 11.246 21.46125 C 13.5195 21.46125 15.45275 20.18825 16.29475 18.143749 L 16.338499 18.032749 L 14.166 17.29525 L 14.129 17.39275 C 13.644 18.575001 12.56625 19.278749 11.246 19.278749 C 10.34675 19.278749 9.5855 18.9655 8.986 18.345751 C 8.37625 17.7195 8.06975 16.927999 8.06975 16.001751 C 8.06975 15.06875 8.36975 14.29425 8.986 13.637249 C 9.58875 13.0175 10.34675 12.70425 11.246 12.70425"/>
    <linearGradient id="linearGradient1" x1="33.224937" y1="16.102583" x2="18.940542" y2="25.351179" gradientUnits="userSpaceOnUse">
        <stop offset="0.081" stopColor="#69d3a7" stopOpacity="1"/>
        <stop offset="1" stopColor="#69d3a7" stopOpacity="0"/>
    </linearGradient></svg>
